# xmcd
#
# Track frame offsets:
#	150
#	14067
#	26211
#	36847
#	49116
#	61189
#	71919
#	84366
#	93209
#	106095
#	118980
#	130913
#	143239
#	156422
#	165401
#	176587
#	190538
#	199308
#	209594
#	220649
#	230976
#	242837
#	251989
#	263763
#	278182
#	288096
#	299282
#	310489
#	324402
#	338471
#	351902
#
# Disc length: 4798 seconds
#
# Revision: 1
# Processed by: cddbd v1.5.2PL0 Copyright (c) Steve Scherf et al.
# Submitted via: EasyCDDAExtractor 9.1.3.1
#
DISCID=df12bc1f
DTITLE=Various Artist - Soul Seduction 102
DYEAR=2006
DGENRE=R&B
TTITLE0=Horace Brown - Things We Do For Love
TTITLE1=Tweet - Call Me
TTITLE2=Aaliyah - More Than A Woman
TTITLE3=Mase and Total - What You Want
TTITLE4=Horace Brown - One For The Money
TTITLE5=Erykah Badu - Bag Lady
TTITLE6=Bilal - Fast Lane
TTITLE7=JLo and Nas - I'm Gonna Be Alright
TTITLE8=Joe and Petey Pablo - Let's Stay Home Tonight
TTITLE9=Mary J. Blige and Ja Rule - Rainy Dayz
TTITLE10=Ginuwine - When Doves Cry
TTITLE11=Akon and Styles P. - Blown Away
TTITLE12=Nas - I Can
TTITLE13=Big Pun and Donnell Jones - It's So Hard
TTITLE14=Big Pun and Joe - Still Not A Player
TTITLE15=Soul 4 Real and Heavy D. - Candy Rain
TTITLE16=TLC - Creep
TTITLE17=Toni Braxton and Loon - Hit The Freeway
TTITLE18=Ruff Endz - No More
TTITLE19=Mario and Fabolous - Tameeka
TTITLE20=Sunshine Anderson - Lunch Or Dinner
TTITLE21=Dazz Band - You Are My Starship
TTITLE22=Marques Houston - That Girl
TTITLE23=Akon and Snoop Dogg - I Wanna Fuck You
TTITLE24=Donnell Jones - Still
TTITLE25=Donnell Jones - You Know What's Up
TTITLE26=Donnell Jones - Put Me Down
TTITLE27=Jaheim and Nas - Just In Case(Remix)
TTITLE28=Imajin - Shorty
TTITLE29=112 - It's Over Now
TTITLE30=Zhane - Hey Mr. Dj
EXTD=
EXTT0=
EXTT1=
EXTT2=
EXTT3=
EXTT4=
EXTT5=
EXTT6=
EXTT7=
EXTT8=
EXTT9=
EXTT10=
EXTT11=
EXTT12=
EXTT13=
EXTT14=
EXTT15=
EXTT16=
EXTT17=
EXTT18=
EXTT19=
EXTT20=
EXTT21=
EXTT22=
EXTT23=
EXTT24=
EXTT25=
EXTT26=
EXTT27=
EXTT28=
EXTT29=
EXTT30=
PLAYORDER=
